<?xml version="1.0" encoding="UTF-8" standalone="no"?>
<!-- Created with Inkscape (http://www.inkscape.org/) -->

<svg
   width="15.999999"
   height="16"
   viewBox="0 0 4.2333329 4.2333334"
   version="1.1"
   id="svg5"
   inkscape:version="1.2.1 (9c6d41e410, 2022-07-14)"
   sodipodi:docname="stat_sheet.svg"
   xmlns:inkscape="http://www.inkscape.org/namespaces/inkscape"
   xmlns:sodipodi="http://sodipodi.sourceforge.net/DTD/sodipodi-0.dtd"
   xmlns="http://www.w3.org/2000/svg"
   xmlns:svg="http://www.w3.org/2000/svg">
  <sodipodi:namedview
     id="namedview7"
     pagecolor="#505050"
     bordercolor="#eeeeee"
     borderopacity="1"
     inkscape:pageshadow="0"
     inkscape:pageopacity="0"
     inkscape:pagecheckerboard="0"
     inkscape:document-units="mm"
     showgrid="true"
     inkscape:zoom="49.825224"
     inkscape:cx="7.2051859"
     inkscape:cy="6.8439231"
     inkscape:window-width="1366"
     inkscape:window-height="705"
     inkscape:window-x="228"
     inkscape:window-y="1072"
     inkscape:window-maximized="1"
     inkscape:current-layer="layer1"
     inkscape:snap-nodes="false"
     inkscape:showpageshadow="0"
     inkscape:deskcolor="#505050">
    <inkscape:grid
       type="xygrid"
       id="grid27654"
       spacingx="16.933333"
       spacingy="16.933333"
       color="#000000"
       opacity="0.1254902"
       empcolor="#ff760a"
       empopacity="0.25098039"
       enabled="false"
       originx="-29.63332"
       originy="-29.633332" />
  </sodipodi:namedview>
  <defs
     id="defs2" />
  <g
     inkscape:label="Шар 1"
     inkscape:groupmode="layer"
     id="layer1"
     transform="translate(-116.41666,-14.816666)">
    <rect
       style="fill:#666666;fill-opacity:0;fill-rule:evenodd;stroke-width:0.499999;paint-order:fill markers stroke"
       id="rect1306"
       width="4.2333331"
       height="4.2333331"
       x="116.41666"
       y="14.816666" />
    <path
       id="path1090"
       style="fill:#ffffff;fill-opacity:1;stroke:none;stroke-width:0.264583px;stroke-linecap:butt;stroke-linejoin:miter;stroke-opacity:1"
       d="m 118.24014,14.974279 c -0.34198,0.01435 -0.52248,0.06271 -0.76953,0.18933 l 0.12616,0.263226 c -0.12373,0.05765 -0.23303,0.137735 -0.3432,0.24766 l -0.2463,-0.24837 c -0.003,0.002 -0.006,0.0036 -0.01,0.0056 -0.50981,0.29732 -0.47923,0.671131 -0.47923,1.007626 0,1.179893 1.27746,2.534858 2.02612,2.534858 0.74865,0 1.99968,-1.354965 1.99968,-2.534858 0,-0.336495 0.0305,-0.710306 -0.4793,-1.007626 -0.004,-0.002 -0.006,-0.0036 -0.01,-0.0056 l -0.24637,0.24837 c -0.11017,-0.109925 -0.21941,-0.190014 -0.34313,-0.24766 l 0.12609,-0.263226 c -0.24705,-0.126618 -0.42755,-0.174984 -0.76953,-0.18933 l -0.0538,0.338868 c -0.0429,-0.0011 -0.0642,-0.02552 -0.23446,-0.02552 -0.17022,0 -0.19707,0.02444 -0.24001,0.02552 z m 0.1528,0.873461 h 0.289 c 0.007,0 0.014,3.44e-4 0.0208,10e-4 0.007,6.9e-4 0.0136,0.0018 0.0202,0.0031 0.007,0.0013 0.0131,0.003 0.0194,0.005 0.006,0.002 0.0127,0.0042 0.0188,0.0068 0.006,0.0026 0.012,0.0054 0.0178,0.0085 0.006,0.0031 0.0113,0.0065 0.0167,0.01014 0.005,0.0036 0.0106,0.0075 0.0156,0.01163 0.005,0.0041 0.01,0.0085 0.0144,0.01305 0.005,0.0046 0.009,0.0094 0.0131,0.01441 0.004,0.005 0.008,0.01024 0.0116,0.01563 0.004,0.0054 0.007,0.01092 0.0101,0.01667 0.003,0.0057 0.006,0.01169 0.009,0.01776 0.003,0.0061 0.005,0.01231 0.007,0.01867 0.002,0.0064 0.004,0.01283 0.005,0.01944 10e-4,0.0066 0.002,0.01332 0.003,0.02015 7.5e-4,0.0068 10e-4,0.01378 10e-4,0.0208 v 1.926174 0.132292 c -0.11405,0.01772 -0.23275,0.02683 -0.35217,0.027 -0.11598,-1.75e-4 -0.2313,-0.0088 -0.34236,-0.02552 v -0.132292 -1.92766 c 0,-0.007 3.8e-4,-0.01397 0.001,-0.0208 7.5e-4,-0.0068 0.002,-0.01354 0.003,-0.02015 0.001,-0.0066 0.003,-0.01309 0.005,-0.01944 0.002,-0.0064 0.004,-0.0126 0.007,-0.01867 0.003,-0.0061 0.005,-0.01202 0.009,-0.01776 0.003,-0.0057 0.007,-0.01127 0.0101,-0.01667 0.004,-0.0054 0.007,-0.01063 0.0116,-0.01563 0.004,-0.005 0.008,-0.0098 0.0131,-0.01441 0.005,-0.0046 0.009,-0.0089 0.0144,-0.01305 0.005,-0.0041 0.0102,-0.008 0.0156,-0.01163 0.005,-0.0036 0.0109,-0.007 0.0167,-0.01014 0.006,-0.0031 0.0117,-0.006 0.0178,-0.0085 0.006,-0.0026 0.0122,-0.0048 0.0186,-0.0068 0.006,-0.002 0.0128,-0.0036 0.0194,-0.005 0.007,-0.0013 0.0133,-0.0024 0.0202,-0.0031 0.007,-6.9e-4 0.0138,-10e-4 0.0208,-10e-4 z m 0.85149,0.521157 h 0.289 c 0.007,0 0.014,3.5e-4 0.0208,0.001 0.007,6.88e-4 0.0135,0.0018 0.0202,0.0031 0.007,0.0013 0.0131,0.003 0.0194,0.005 0.006,0.002 0.0126,0.0042 0.0187,0.0068 0.006,0.0026 0.012,0.0054 0.0178,0.0085 0.006,0.0031 0.0113,0.0065 0.0167,0.01014 0.005,0.0036 0.0106,0.0075 0.0156,0.01163 0.005,0.0041 0.01,0.0085 0.0144,0.01305 0.005,0.0046 0.009,0.0094 0.013,0.01441 0.004,0.005 0.008,0.01024 0.0116,0.01563 0.004,0.0054 0.007,0.01092 0.0101,0.01667 0.003,0.0057 0.006,0.0117 0.009,0.01776 0.003,0.0061 0.005,0.01231 0.007,0.01867 0.002,0.0064 0.004,0.01283 0.005,0.01944 10e-4,0.0066 0.002,0.01332 0.003,0.02015 7.5e-4,0.0068 10e-4,0.01378 10e-4,0.0208 v 0.83128 0.132292 h -0.003 c -3.7e-4,0.232938 -0.26968,0.444773 -0.69104,0.543572 v -0.132296 -1.374852 c 0,-0.007 3.8e-4,-0.01397 0.001,-0.0208 7.5e-4,-0.0068 0.002,-0.01354 0.003,-0.02015 0.001,-0.0066 0.003,-0.01309 0.005,-0.01944 0.002,-0.0064 0.004,-0.0126 0.007,-0.01867 0.003,-0.0061 0.005,-0.01202 0.009,-0.01776 0.003,-0.0057 0.007,-0.01127 0.0101,-0.01666 0.004,-0.0054 0.008,-0.01063 0.0116,-0.01563 0.004,-0.005 0.008,-0.0098 0.013,-0.01441 0.005,-0.0046 0.009,-0.0089 0.0144,-0.01305 0.005,-0.0041 0.0102,-0.008 0.0156,-0.01163 0.005,-0.0036 0.0109,-0.007 0.0167,-0.01014 0.006,-0.0031 0.0117,-0.006 0.0178,-0.0085 0.006,-0.0026 0.0123,-0.0048 0.0187,-0.0068 0.006,-0.002 0.0128,-0.0036 0.0194,-0.005 0.007,-0.0013 0.0133,-0.0024 0.0202,-0.0031 0.007,-6.87e-4 0.0138,-0.001 0.0208,-0.001 z m -1.73788,0.492153 h 0.35373 c 0.006,0 0.0117,3.25e-4 0.0174,9e-4 0.006,5.75e-4 0.0114,0.0014 0.017,0.0025 0.0667,0.01358 0.11897,0.06593 0.13255,0.132615 10e-4,0.0056 0.002,0.01124 0.003,0.01699 6.3e-4,0.0057 8.8e-4,0.01154 8.8e-4,0.01744 v 0.916675 0.132292 c -0.39761,-0.0918 -0.6638,-0.284727 -0.69453,-0.503393 v -0.132292 -0.413282 c 0,-0.0059 3.7e-4,-0.0117 8.7e-4,-0.01744 6.3e-4,-0.0057 10e-4,-0.01143 0.003,-0.01699 0.0136,-0.06669 0.0659,-0.11903 0.13255,-0.132615 0.006,-0.0011 0.0112,-0.0019 0.017,-0.0025 0.006,-5.75e-4 0.0115,-9e-4 0.0174,-9e-4 z"
       sodipodi:nodetypes="ccccccssscccccccscccscccccccccccccccscccccsccccccccccccccccccscccccccccccccccscccccsccccccccccccccccccsccccsccccscccccc" />
    <rect
       style="fill:#666666;fill-opacity:0;fill-rule:evenodd;stroke-width:0.499999;paint-order:fill markers stroke"
       id="rect1096"
       width="4.2333302"
       height="4.2333331"
       x="116.41666"
       y="14.816666" />
    <rect
       style="fill:#666666;fill-opacity:0;fill-rule:evenodd;stroke-width:0.499999;paint-order:fill markers stroke"
       id="rect1098"
       width="4.2333302"
       height="4.2333331"
       x="116.41666"
       y="14.816666" />
    <rect
       style="fill:#666666;fill-opacity:0;fill-rule:evenodd;stroke-width:0.499999;paint-order:fill markers stroke"
       id="rect1100"
       width="4.2333302"
       height="4.2333331"
       x="116.41666"
       y="14.816666" />
  </g>
</svg>
